{"title":"Kes 1969 720p BRRip XVID AC3 Multisubs nekanilla","uid":8208137,"size":3848944365,"categoryP":"video","categoryS":"hd___movies","magnet":"?xt=urn:btih:114c867207620c04bd8282224ec6c34fd070a620&amp;dn=Kes+1969+720p+BRRip+XVID+AC3+Multisubs+nekanilla&amp;tr=udp%3A%2F%2Ftracker.openbittorrent.com%3A80&amp;tr=udp%3A%2F%2Fopen.demonii.com%3A1337&amp;tr=udp%3A%2F%2Ftracker.coppersurfer.tk%3A6969&amp;tr=udp%3A%2F%2Fexodus.desync.com%3A6969","seeders":1,"leechers":0,"uploader":"nekanilla","files":8,"time":1362170625,"description":"--------------------------------------------------------------------------------------\n             Kes 1969 720p BRRip XVID AC3 Multisubs nekanilla\n______________________________________________________________________________________\n\n---------------------------------------INFO-------------------------------------------\n\nMovie name: Kes\nCountry and year of production: UK / 1969\nSpeech language / subtitle: English / Greek, English, Danish, Spanish, French, German SRT\nGenre: Drama \nMovie Length: 110 minutes\nWriter: Barry Hines, Ken Loach, Tony Garnett\nDirected by: Ken Loach \n\nWon 2 BAFTA Film Awards\n______________________________________________________________________________________\n\n---------------------------------------PLOT-------------------------------------------\n\nBullied at school and ignored and abused at home by his indifferent mother and older brother, Billy Casper (David Bradley), a 15-year-old working-class Yorkshire boy, tames and trains his pet kestrel falcon whom he names Kes. Helped and encouraged by his English teacher Mr. Farthing (Colin Welland) and his fellow students, Billy finally finds a positive purpose to his unhappy existence, until tragedy strikes. Written by alfiehitchie\n\n______________________________________________________________________________________\n\n---------------------------------------CAST-------------------------------------------\n\nDavid Bradley as Billy Casper\nFreddie Fletcher as Jud\nLynne Perrie as Mrs Casper\nColin Welland as Mr Farthing\nBrian Glover as Mr Sugden\nBob Bowes as Mr Gryce\nBernard Atha as Youth employment officer\nJoey Kaye as Pub comedian\nBill Dean as Fish and Chip Shop Man\nGeoffrey Banks as Mathematics teacher\nDuggie Brown as Milkman\nHarry Markham as Newsagent\n______________________________________________________________________________________\n\n------------------------------------MEDIA INFO----------------------------------------\n     \n                                 Includes sample\nGeneral\nComplete name                  :Kes 1969 720p BRRip XVID AC3.avi\nFormat                         : AVI\nFormat/Info                    : Audio Video Interleave\nFormat profile                 : OpenDML\nFormat settings                : rec\nFile size                      : 3.54 GiB\nDuration                       : 1h 51mn\nOverall bit rate               : 4 562 Kbps\nWriting application            : AVI-Mux GUI 1.17.8.3, Feb 16 201019:42:50\n\nVideo\nID                             : 0\nFormat                         : MPEG-4 Visual\nFormat profile                 : Advanced Simple@L5\nFormat settings, BVOP          : 2\nFormat settings, QPel          : No\nFormat settings, GMC           : No warppoints\nFormat settings, Matrix        : Default (H.263)\nCodec ID                       : XVID\nCodec ID/Hint                  : XviD\nDuration                       : 1h 51mn\nBit rate                       : 4 109 Kbps\nWidth                          : 1 280 pixels\nHeight                         : 768 pixels\nDisplay aspect ratio           : 1.667\nFrame rate                     : 23.976 fps\nColor space                    : YUV\nChroma subsampling             : 4:2:0\nBit depth                      : 8 bits\nScan type                      : Progressive\nCompression mode               : Lossy\nBits/(Pixel*Frame)             : 0.174\nStream size                    : 3.19 GiB (90%)\nWriting library                : XviD 1.2.1 (UTC 2008-12-04)\n\nAudio\nID                             : 1\nFormat                         : AC-3\nFormat/Info                    : Audio Coding 3\nMode extension                 : CM (complete main)\nCodec ID                       : 2000\nDuration                       : 1h 51mn\nBit rate mode                  : Constant\nBit rate                       : 448 Kbps\nChannel(s)                     : 1 channel\nChannel positions              : Front: C\nSampling rate                  : 48.0 KHz\nBit depth                      : 16 bits\nCompression mode               : Lossy\nStream size                    : 356 MiB (10%)\nAlignment                      : Aligned on interleaves\nInterleave, duration           : 64 ms (1.53 video frames)\nInterleave, preload duration   : 192 ms\nTitle                          : Kes audio\n______________________________________________________________________________________\n\n______________________________________________________________________________________\n\n-----------------------------------SCREENSHOTS----------------------------------------\n                         &lt;a href=&quot; http://i.imgur.com/ht65r0r.jpg&quot; rel=&quot;nofollow&quot; target=&quot;_NEW&quot;&gt; http://i.imgur.com/ht65r0r.jpg&lt;/a&gt;\n                         &lt;a href=&quot; http://i.imgur.com/UQCE7IW.png&quot; rel=&quot;nofollow&quot; target=&quot;_NEW&quot;&gt; http://i.imgur.com/UQCE7IW.png&lt;/a&gt;\n                         &lt;a href=&quot; http://i.imgur.com/VTR22wD.png&quot; rel=&quot;nofollow&quot; target=&quot;_NEW&quot;&gt; http://i.imgur.com/VTR22wD.png&lt;/a&gt;\n                         &lt;a href=&quot; http://i.imgur.com/3vcgqg4.jpg&quot; rel=&quot;nofollow&quot; target=&quot;_NEW&quot;&gt; http://i.imgur.com/3vcgqg4.jpg&lt;/a&gt;\n______________________________________________________________________________________\n\n                            Source: Kes.1969.1080p.BluRay.FLAC1.0.x264-DON\n\n                            Rip   : By   nekanilla","torrent":{"xt":"urn:btih:114c867207620c04bd8282224ec6c34fd070a620","amp;dn":"Kes+1969+720p+BRRip+XVID+AC3+Multisubs+nekanilla","amp;tr":["udp%3A%2F%2Ftracker.openbittorrent.com%3A80","udp%3A%2F%2Fopen.demonii.com%3A1337","udp%3A%2F%2Ftracker.coppersurfer.tk%3A6969","udp%3A%2F%2Fexodus.desync.com%3A6969"],"infoHash":"114c867207620c04bd8282224ec6c34fd070a620","infoHashBuffer":{"type":"Buffer","data":[17,76,134,114,7,98,12,4,189,130,130,34,78,198,195,79,208,112,166,32]},"announce":[],"urlList":[]}}